<?xml version="1.0"?>
<svg xmlns="http://www.w3.org/2000/svg" height="512px" viewBox="-64 1 511 511.999" width="512px"><g><path d="m192.234375 275.304688c-20.167969-11.816407-46.574219-9.082032-63.855469 8.199218-20.527344 20.527344-20.527344 53.929688 0 74.457032l53.246094 53.246093c2.929688 2.929688 6.769531 4.394531 10.605469 4.394531 3.839843 0 7.679687-1.464843 10.605469-4.394531l53.246093-53.246093c20.527344-20.527344 20.527344-53.929688 0-74.457032-17.277343-17.277344-43.679687-20.015625-63.847656-8.199218zm42.636719 61.445312-42.636719 42.636719-42.640625-42.636719c-8.832031-8.832031-8.832031-23.203125 0-32.03125 8.832031-8.832031 23.199219-8.832031 32.03125 0 5.859375 5.855469 15.355469 5.855469 21.214844 0 8.828125-8.832031 23.199218-8.832031 32.03125 0 8.832031 8.828125 8.832031 23.199219 0 32.03125zm0 0" data-original="#000000" class="active-path" data-old_color="#000000" fill="#FFFFFF"/><path d="m255.011719 203.375c29.332031-20.085938 48.621093-53.816406 48.621093-91.976562 0-61.425782-49.972656-111.398438-111.398437-111.398438-61.429687 0-111.402344 49.972656-111.402344 111.398438 0 38.160156 19.289063 71.894531 48.625 91.980468-115.367187 40.066406-128.957031 147.484375-128.957031 181.152344v56.445312c0 39.160157 31.859375 71.023438 71.023438 71.023438h241.417968c39.164063 0 71.023438-31.863281 71.023438-71.023438v-56.460937c0-34.382813-15.464844-141.726563-128.953125-181.140625zm-144.179688-91.976562c0-44.882813 36.515625-81.398438 81.402344-81.398438 44.882813 0 81.398437 36.515625 81.398437 81.398438 0 44.886718-36.515624 81.402343-81.398437 81.402343-44.886719 0-81.402344-36.515625-81.402344-81.402343zm243.132813 329.578124c0 22.621094-18.402344 41.023438-41.023438 41.023438h-56.859375c-9.242187 0-16.714843-7.464844-16.714843-16.730469 0-9.714843 7.859374-17.535156 17.535156-17.535156h47.796875c8.285156 0 15-6.71875 15-15v-64.269531c0-8.28125-6.714844-15-15-15-8.285157 0-15 6.71875-15 15v49.269531h-32.796875c-26.253906 0-47.535156 21.238281-47.535156 47.550781 0 5.804688 1.066406 11.445313 3.082031 16.714844h-40.585938c2.082031-5.3125 3.234375-11.089844 3.234375-17.132812 0-26.339844-21.390625-47.132813-47.132812-47.132813h-33.199219v-49.265625c0-8.285156-6.714844-15-15-15s-15 6.714844-15 15v64.265625c0 8.285156 6.714844 15 15 15h48.199219c9.402344 0 17.132812 7.597656 17.132812 17.148437 0 9.4375-7.679687 17.117188-17.117187 17.117188h-56.457031c-22.621094 0-41.023438-18.402344-41.023438-41.023438v-56.441406c0-89.488281 72.421875-161.734375 161.75-161.734375 89.460938 0 161.714844 72.40625 161.714844 161.71875zm0 0" data-original="#000000" class="active-path" data-old_color="#000000" fill="#FFFFFF"/></g> </svg>
